<svg width="81" height="13" viewBox="0 0 81 13" fill="none" xmlns="http://www.w3.org/2000/svg">
<path d="M7.04686 3.72656C7.04686 3.21614 6.85415 2.80989 6.46874 2.50781C6.08332 2.20573 5.55988 2.05468 4.89842 2.05468C4.33072 2.05468 3.85676 2.20573 3.47655 2.50781C3.09634 2.80468 2.90624 3.1901 2.90624 3.66406H0.937485C0.937485 3.04427 1.10936 2.49218 1.45311 2.00781C1.79686 1.52343 2.27342 1.14843 2.8828 0.882809C3.49217 0.611975 4.16405 0.476558 4.89842 0.476558C6.20051 0.476558 7.21092 0.760413 7.92968 1.32812C8.65363 1.89583 9.01561 2.6901 9.01561 3.71093C9.01561 4.22656 8.85936 4.70052 8.54686 5.13281C8.23436 5.5651 7.79686 5.90625 7.23436 6.15625C7.86978 6.375 8.35415 6.70833 8.68749 7.15625C9.02603 7.59896 9.1953 8.15104 9.1953 8.8125C9.1953 9.83333 8.80468 10.6458 8.02343 11.25C7.24217 11.849 6.20051 12.1484 4.89842 12.1484C4.09634 12.1484 3.36978 12.0052 2.71874 11.7187C2.0729 11.4323 1.58592 11.0417 1.2578 10.5469C0.934881 10.0521 0.773422 9.48437 0.773422 8.84375H2.74217C2.74217 9.33333 2.9453 9.7474 3.35155 10.0859C3.7578 10.4193 4.27342 10.5859 4.89842 10.5859C5.59634 10.5859 6.15624 10.4219 6.57811 10.0937C7.0052 9.76562 7.21874 9.33854 7.21874 8.8125C7.21874 8.17187 7.03124 7.70833 6.65624 7.42187C6.28645 7.13021 5.74217 6.98437 5.02342 6.98437H3.68749V5.42187H4.95311C6.34895 5.42187 7.04686 4.85677 7.04686 3.72656ZM17.3984 9.35156H12.9922L12.0703 12H10.0156L14.3125 0.624996H16.0859L20.3906 12H18.3281L17.3984 9.35156ZM13.5469 7.75781H16.8437L15.1953 3.03906L13.5469 7.75781ZM25.0547 7.125H23.7109V12H21.7422V0.624996H23.7109V5.40625H24.7969L28.1406 0.624996H30.5625L26.6562 6.07031L30.9062 12H28.5312L25.0547 7.125ZM38.3672 9.35156H33.9609L33.0391 12H30.9844L35.2812 0.624996H37.0547L41.3594 12H39.2969L38.3672 9.35156ZM34.5156 7.75781H37.8125L36.1641 3.03906L34.5156 7.75781ZM48.3438 3.72656C48.3438 3.21614 48.151 2.80989 47.7656 2.50781C47.3802 2.20573 46.8568 2.05468 46.1953 2.05468C45.6276 2.05468 45.1536 2.20573 44.7734 2.50781C44.3932 2.80468 44.2031 3.1901 44.2031 3.66406H42.2344C42.2344 3.04427 42.4063 2.49218 42.75 2.00781C43.0938 1.52343 43.5703 1.14843 44.1797 0.882809C44.7891 0.611975 45.4609 0.476558 46.1953 0.476558C47.4974 0.476558 48.5078 0.760413 49.2266 1.32812C49.9505 1.89583 50.3125 2.6901 50.3125 3.71093C50.3125 4.22656 50.1563 4.70052 49.8438 5.13281C49.5313 5.5651 49.0938 5.90625 48.5313 6.15625C49.1667 6.375 49.651 6.70833 49.9844 7.15625C50.3229 7.59896 50.4922 8.15104 50.4922 8.8125C50.4922 9.83333 50.1016 10.6458 49.3203 11.25C48.5391 11.849 47.4974 12.1484 46.1953 12.1484C45.3932 12.1484 44.6667 12.0052 44.0156 11.7187C43.3698 11.4323 42.8828 11.0417 42.5547 10.5469C42.2318 10.0521 42.0703 9.48437 42.0703 8.84375H44.0391C44.0391 9.33333 44.2422 9.7474 44.6484 10.0859C45.0547 10.4193 45.5703 10.5859 46.1953 10.5859C46.8932 10.5859 47.4531 10.4219 47.875 10.0937C48.3021 9.76562 48.5156 9.33854 48.5156 8.8125C48.5156 8.17187 48.3281 7.70833 47.9531 7.42187C47.5833 7.13021 47.0391 6.98437 46.3203 6.98437H44.9844V5.42187H46.25C47.6458 5.42187 48.3438 4.85677 48.3438 3.72656ZM58.6953 9.35156H54.2891L53.3672 12H51.3125L55.6094 0.624996H57.3828L61.6875 12H59.625L58.6953 9.35156ZM54.8438 7.75781H58.1406L56.4922 3.03906L54.8438 7.75781ZM70.2656 2.21875H66.7188V12H64.7578V2.21875H61.2422V0.624996H70.2656V2.21875ZM73.836 4.97656H76.1641C76.9974 4.97656 77.724 5.11979 78.3438 5.40625C78.9636 5.69271 79.4349 6.09896 79.7578 6.625C80.0807 7.15104 80.2422 7.76042 80.2422 8.45312C80.2422 9.51562 79.8802 10.3698 79.1563 11.0156C78.4375 11.6615 77.4557 11.9896 76.211 12H71.8594V0.624996H73.836V4.97656ZM73.836 6.5625V10.4219H76.1563C76.8229 10.4219 77.3412 10.2422 77.711 9.88281C78.086 9.51823 78.2735 9.03646 78.2735 8.4375C78.2735 7.86458 78.0912 7.41146 77.7266 7.07812C77.362 6.74479 76.8568 6.57291 76.211 6.5625H73.836Z" fill="white"/>
</svg>
