<svg width="129" height="12" viewBox="0 0 129 12" fill="none" xmlns="http://www.w3.org/2000/svg">
<path d="M9.63279 12H7.66404V6.94531H2.5781V12H0.60154V0.624996H2.5781V5.35937H7.66404V0.624996H9.63279V12ZM18.4844 9.35156H14.0781L13.1562 12H11.1015L15.3984 0.624996H17.1719L21.4765 12H19.414L18.4844 9.35156ZM14.6328 7.75781H17.9297L16.2812 3.03906L14.6328 7.75781ZM31.7734 12H29.8047V2.21875H24.7969V12H22.8281V0.624996H31.7734V12ZM41.1328 0.624996H43.1094V12H41.1328V3.89843L36.1406 12H34.1641V0.624996H36.1406V8.73437L41.1328 0.624996ZM47.4922 0.624996V10.4219H50.9609V0.624996H52.9297V10.4219H56.375V0.624996H58.3437V12H45.5078V0.624996H47.4922ZM67.6641 0.624996H69.6406V12H67.6641V3.89843L62.6719 12H60.6953V0.624996H62.6719V8.73437L67.6641 0.624996ZM79.9922 2.21875H76.4453V12H74.4844V2.21875H70.9688V0.624996H79.9922V2.21875ZM88.1406 6.92187H83.4688V10.4219H88.9297V12H81.4922V0.624996H88.875V2.21875H83.4688V5.35937H88.1406V6.92187ZM103.555 12H101.586V6.94531H96.5V12H94.5234V0.624996H96.5V5.35937H101.586V0.624996H103.555V12ZM112.406 9.35156H108L107.078 12H105.023L109.32 0.624996H111.094L115.398 12H113.336L112.406 9.35156ZM108.555 7.75781H111.852L110.203 3.03906L108.555 7.75781ZM119.258 0.624996L122.539 9.34375L125.813 0.624996H128.367V12H126.398V8.25L126.594 3.23437L123.234 12H121.82L118.469 3.24218L118.664 8.25V12H116.695V0.624996H119.258Z" fill="white"/>
</svg>
